<svg xmlns="http://www.w3.org/2000/svg" xmlns:xlink="http://www.w3.org/1999/xlink" width="25.736" height="22.553" viewBox="0 0 25.736 22.553">
                                <defs>
                                  <clipPath id="clip-path">
                                    <rect id="Rectangle_5676" data-name="Rectangle 5676" width="25.736" height="22.553" fill="#e3b154" stroke="#e3b154" stroke-width="0.3"/>
                                  </clipPath>
                                </defs>
                                <g id="Group_13016" data-name="Group 13016" transform="translate(0 0.001)">
                                  <g id="Group_13015" data-name="Group 13015" transform="translate(0 -0.001)" clip-path="url(#clip-path)">
                                    <path id="Path_21015" data-name="Path 21015" d="M24.584,3.357H7.645a.513.513,0,0,0,0,1.026H24.584a.125.125,0,0,1,.121.156L22.578,12.87a.125.125,0,0,1-.122.094H7.269L4.088.505A.672.672,0,0,0,3.436,0H.513a.513.513,0,1,0,0,1.026H3.162L7.035,16.2a1.629,1.629,0,0,0,1.58,1.227H22.68a.513.513,0,1,0,0-1.026H8.615a.6.6,0,0,1-.585-.455l-.5-1.951H22.456a1.151,1.151,0,0,0,1.116-.866L25.7,4.794a1.151,1.151,0,0,0-1.116-1.436" transform="translate(0 0.001)" fill="#e3b154" stroke="#e3b154" stroke-width="0.3"/>
                                    <path id="Path_21016" data-name="Path 21016" d="M479.389,1072.288a2.109,2.109,0,1,0,2.109,2.109,2.111,2.111,0,0,0-2.109-2.109m0,3.192a1.083,1.083,0,1,1,1.083-1.083,1.084,1.084,0,0,1-1.083,1.083" transform="translate(-469.119 -1053.953)" fill="#e3b154" stroke="#e3b154" stroke-width="0.3"/>
                                    <path id="Path_21017" data-name="Path 21017" d="M1013.256,1072.288a2.109,2.109,0,1,0,2.109,2.109,2.111,2.111,0,0,0-2.109-2.109m0,3.192a1.083,1.083,0,1,1,1.083-1.083,1.084,1.084,0,0,1-1.083,1.083" transform="translate(-993.857 -1053.953)" fill="#e3b154" stroke="#e3b154" stroke-width="0.3"/>
                                  </g>
                                </g>
                              </svg>