<svg xmlns="http://www.w3.org/2000/svg" xmlns:xlink="http://www.w3.org/1999/xlink" width="259.591" height="96.467" viewBox="0 0 259.591 96.467">
  <defs>
    <clipPath id="clip-path">
      <rect id="Rectangle_5528" data-name="Rectangle 5528" width="259.591" height="96.467" fill="#ddd1c0"/>
    </clipPath>
  </defs>
  <g id="Logo" transform="translate(0 0)">
    <g id="Group_12955" data-name="Group 12955" transform="translate(0 0)" clip-path="url(#clip-path)">
      <path id="Path_20955" data-name="Path 20955" d="M114.168,90.839a4.235,4.235,0,0,0-.706-.152c-.593-.082-1.2-.078-1.783-.191a.469.469,0,0,1-.392-.3l-.531-.867a.423.423,0,0,0-.152-.168.459.459,0,0,0-.267-.015,7.222,7.222,0,0,1-2.38-.886,2.973,2.973,0,0,0-2.312.154,5.567,5.567,0,0,1-1.866.264,2.278,2.278,0,0,1-.35-.215c-.894-.59-1.913-.322-2.912-.381a7.252,7.252,0,0,1-2.893-.941,3.327,3.327,0,0,0-.965-.221c-.554.07-1.105.167-1.655.267a15.8,15.8,0,0,0-1.669.722.88.88,0,0,1-.892-.309,4.122,4.122,0,0,1-.507-.859c-.923-1.738-4.419-4.938-4.318-5.281a6.429,6.429,0,0,0-1.864.375c-.163.059-.3-2.2-.6-3.136q-.932-2.854-1.879-5.7a6.5,6.5,0,0,0-.955-1.475c-2.309-1.994-4.889-3.687-6.944-5.94a2.082,2.082,0,0,1-.272-.956,12.671,12.671,0,0,1,2.134-4.091s4.206-4.653,4.249-4.69a2.308,2.308,0,0,1,2.381-.75,3.867,3.867,0,0,0,1.819.351,18.945,18.945,0,0,1,2.66-.466,3.375,3.375,0,0,0,1.952-.629l.834-1.135L91,52.294l-2.979,1.492-1.185-1.051,1.626-2.454,1.444-1.45,3.155,1.626.7.483,2.762-1.71,5.4-2.854-.834-1.619,1.311-.834,1.052-2.72,1.626-.35,4.775-2.321,1.2-.949a.379.379,0,0,0-.1-.646l-3.021-1.3-2.454-.877.834-1.4-.482-.877-8.854-.659-.7-1.487,1.97-.967,1.185-1.71-1.4-1.842-.265-2.847-.569-1.01h-2.32l-1.01.575-1.094-.308-5.088-.967h-.961l-.091-2.32.7-.877,2.278-.175,1.8-1.928,2.013-.484,1.317-.176.835-1.535L89.9,11.137,88.325,9.863l-5.433.518-4.3-.343-.484-.743L78.2,8.152l.743-.918,1.294.139a.434.434,0,0,0,.453-.592L79.822,4.6l-3.554-.659-3.59-1.753-.35-1.62L71.276,0,69.693.266,68.248.7l-1.4-.392L64.653.616l-1.27.568-6.4,1.36L50.275,3.9,48.831,2.109l-1.184-.091-1.095.441L44.8,2.5l-2.327.351L39.887,4.339l-.7.308-.35-.35L37,5.306l-.526.743.085.792L39.01,8.025l1.142-.309,3.681-.658,1.535-.134,2.67,1.317.091.967-.792,1.311-1.535.527-2.581.568-1.492.35-2.018-1.179-1.62-.048-1.445.7-1.185.134-.925.616-1.094.218-3.856-.393-.792.659.392,1.269.4.526,1.01.085-.967.876-.792,1.1.176,1.8.967-.133,1.317-.218.218.877-.568.749-1.36.3-1.4.224-2.5,1.662L24.549,22l-1.052.792L20.91,23.1l-1.01.435-.308.967-1.185,2.412-1.185.526-.217.658,1.227,1.838h2.1l1.1,1.8-1.227.435-4.037-.351-5.39-.35-1.535.442-1.009.609L4.95,33.577l-2.013.75-1.625-.09L.876,35.287l.435.526L.876,37.481,0,39.409v1.843s2.713,2.363,2.72,2.363c.549.375,3.063,2.514,3.891,2.913a1.95,1.95,0,0,0,.779.248c.9.024,1.384-1.081,2.194-1.481.526-.253,3.3.073,4.091.169.562.073,1.275.3,1.282.864a7.137,7.137,0,0,1-1.511,1.5,7.293,7.293,0,0,0-.991.659.916.916,0,0,0-.146,1.334l.654.083a15.9,15.9,0,0,0,3.2-2.372c.7-.671,3.9-2.134,4.63-1.783a2.5,2.5,0,0,1,1.4,1.885c.066.532-.175,2.7.108,3.148.714,1.13,3,.3,4.044.06,0,0,4.018.961,4.031.967a6.487,6.487,0,0,0,2.308.35,4.745,4.745,0,0,1,2.835,1.257,3.471,3.471,0,0,0,.646.55c.635.345,1.421.091,2.14.127.888.049,4.66,2.508,4.986,2.653a4.827,4.827,0,0,1-.326,2.151c-.514.6-.889,1.765-1.91,2.278s.375.882.556.792a4.291,4.291,0,0,0,2.725-2.859c.915-2.348,5.627-4.8,5.991-4.98l.045-.021a4.505,4.505,0,0,1,1.6-.323A3.766,3.766,0,0,1,53.2,54a15.187,15.187,0,0,0,2.121.3,2.516,2.516,0,0,1,1.288.6A14.085,14.085,0,0,1,60.3,58.373c.526.81,1.01,1.656,1.522,2.472l1,1.185L63.033,64l.054.242a5.28,5.28,0,0,0-2.665.8c-1.1.84-1.783,1.951-3.088,2.326s-3.136.4-3.511.967-.822.986-.078.888,3.662-1.111,4.248-.834c.773.187,1.052-.277,1.517-.93a4.308,4.308,0,0,1,3.8-2.278l.078.357,2.145,2.278,4.165,3.245,1.758,2.98.224,1.088a2.527,2.527,0,0,1-2.169-.327c-.58-.55-4.557-1.765-5.723-2.133a26.763,26.763,0,0,0-4.6-1.306,45.229,45.229,0,0,0-7.578.012c-3.814.146-6.908-3.88-7.646-4.985-.169-.259-1-.417-1-.417.882.834,2.532,3.946,3.227,4.828,1.348,1.118,3.928,2.514,9.041,2.472s7.022,1.994,10.788,5.016,1.716,7.488,1.716,7.488a5.714,5.714,0,0,1-2.913,3.445A30.9,30.9,0,0,1,56,91.075c-7.741.417-25.829,3-31.136-4.255,0,0-.853-1.4-1.614-1.046S22.7,87.793,22,87.654s-.768.906-.49,1.046,2.593,1.093,2.448,1.909l-.659.568s-1.8.435-1.8.442c-2.779,2.3-2.532,2.973-2.339,2.913,1.874.157,5.651,1.994,7.573,1.933,2.424-.078,24.2-1.142,29.045-1.209,9.694-.145,17.46-1.1,27.147-1.119,4.751-.006,9.295-.09,14.039-.09,2.145,0,4.738.556,6.884.556a10.457,10.457,0,0,0,3.989-1.085c.328-.137,1.5-.58,1.756-.652.3-.084.938-.272.959-.284a4.784,4.784,0,0,1,.443-.24,1.968,1.968,0,0,1,.5-.1l1.68-.192a2.994,2.994,0,0,0,1.912-.693,2.371,2.371,0,0,0-.928-.517M89.09,38.945a.836.836,0,0,1,.3-.394c.427-.29,1-.032,1.441.236a.553.553,0,0,0,.357.118c.311-.046.319-.451.521-.62a2.039,2.039,0,0,1,.869-.268c.659-.143,1.327-.247,1.985-.39.525-.115.876.73.876.731.118.283-.915,1.763-1.054,2.024a7.046,7.046,0,0,0-1.672-.7,2.34,2.34,0,0,0-1.757.225,3.414,3.414,0,0,1-.693.437,3.94,3.94,0,0,1-1.24.021c-.01-.318-.037-.64-.023-.957a1.466,1.466,0,0,1,.092-.461M27.4,35.2l-.031.078a.9.9,0,0,1-.224.315l-.459.429a.924.924,0,0,1-.508.236l-.7.078-.466.236-1.1.858a.874.874,0,0,1-.556.194h-.284a.889.889,0,0,1-.774-.447l-.03-.042a.929.929,0,0,1-.121-.454V36.3a.925.925,0,0,0-.26-.635l-.133-.134a.951.951,0,0,0-.453-.241c-.83-.178-2.6-.183-2.764-1.231a15.242,15.242,0,0,0,3.325-.286l.1-.018c.26-.073,1.475-.4,1.529-.46s1.891.23,2.266.285a1.135,1.135,0,0,0,.14.012h.435a.9.9,0,0,1,.756.412l.235.356a.9.9,0,0,1,.073.84M36.8,32.5l-.393.574s-.176.405-1.052.581a6.212,6.212,0,0,0-2.708.852.774.774,0,0,1-.345.084h-.477a.7.7,0,0,1-.3-.06l-.719-.314a.687.687,0,0,1-.139-.085c-.17-.121-.611-.453-.756-.593a.673.673,0,0,0-.266-.121.753.753,0,0,1-.537-.943l.127-.417a.743.743,0,0,1,.683-.532l.55-.03a1.639,1.639,0,0,1,.175.012l1.313.254a.672.672,0,0,0,.248.006l1.033-.144a.5.5,0,0,1,.14-.013l1.22.055a.928.928,0,0,0,.218-.024l1.178-.3a.754.754,0,0,1,.8,1.154M55,36.11a.237.237,0,0,1-.284-.177l-.3-1.346h.472c.1,0,.3.154.383.208a1.074,1.074,0,0,0,.585.22,1.053,1.053,0,0,0,.242-.041,4.084,4.084,0,0,0,.877-.343.643.643,0,0,1,.232-.088.542.542,0,0,1,.246.054,3.626,3.626,0,0,1,.893.517c-.141.343-.284.685-.425,1.027a.226.226,0,0,1-.064.1.2.2,0,0,1-.13.03,1.816,1.816,0,0,1-.561-.13c-.2-.071-.4-.148-.6-.229a.608.608,0,0,0-.492-.049L55,36.11m4.912,2.525a6.387,6.387,0,0,1-1.776.248,1.485,1.485,0,0,1-.943-.259,1.466,1.466,0,0,0-.847-.267h-.936l.513-.386a1.464,1.464,0,0,1,.948-.3,2.691,2.691,0,0,0,.744-.048,9.271,9.271,0,0,1,2.3.411s.175.4,0,.6m9,1.27c-.115.526-1.4,1.348-1.4,1.348s-.3.054-.411-.472c-.091-.4-.816-.834-1.167-1.015a.607.607,0,0,0-.343-.079,3.087,3.087,0,0,1-.979-.108.7.7,0,0,1-.447-.454,7.117,7.117,0,0,0-.544-1.16.672.672,0,0,0-.587-.338.668.668,0,0,1-.665-.671v-.32h-.544c-.357-.272.025-.7.321-.955a.649.649,0,0,1,.6-.139l.8.2c.035.012.072.023.1.036l1.118.489.671.26a.682.682,0,0,1,.375.369l.206.508a.675.675,0,0,0,.309.338l.749.393a.706.706,0,0,0,.315.078h.58a.675.675,0,0,1,.508.223l.315.363a.671.671,0,0,1,.163.357,2.357,2.357,0,0,1-.036.75M70.332,7.046a4.417,4.417,0,0,0-.873.15,1.357,1.357,0,0,0-.395.159,1.825,1.825,0,0,1-.713.294c-.311.05-.613.117-.923.168a1.809,1.809,0,0,0-.9.419,7.6,7.6,0,0,0-.957.924.477.477,0,0,0-.151.277c.041.092.109.117.176.159.277.168.546.336.823.494a.711.711,0,0,1,.335.5,5.757,5.757,0,0,1,.1.931,2.225,2.225,0,0,0,.144.688,4.43,4.43,0,0,1,.277,1.36c.059,1.006.135,2.005.2,3.011,0,.059.034.135-.034.185-.083-.008-.142-.117-.244-.083s-.059.168-.168.21a.571.571,0,0,0-.352-.21.582.582,0,0,1-.127-.21c-.024-.059-.041-.125-.1-.151a.807.807,0,0,1-.352-.461,1.03,1.03,0,0,0-.11-.168,1.324,1.324,0,0,1-.267-.4.289.289,0,0,0-.126-.158c-.1-.042-.151-.135-.218-.219-.109-.151-.142-.344-.26-.487a3.9,3.9,0,0,1-.521-.956,4.023,4.023,0,0,0-.36-.806A.212.212,0,0,1,64.2,12.5a.572.572,0,0,0-.244-.487c-.235-.2-.461-.4-.688-.6-.067-.059-.134-.109-.2-.16a.244.244,0,0,0-.251-.041c-.31.083-.613.192-.915.285a.828.828,0,0,0-.487.419,10.2,10.2,0,0,1-.881,1.36,1.253,1.253,0,0,1-.57.445.906.906,0,0,0-.337.226c-.059.059-.1.16-.21.16l-.176-.2c.008-.21-.084-.395-.075-.6a.266.266,0,0,0-.042-.1.644.644,0,0,1-.042-.175,3.127,3.127,0,0,1-.117-.739c0-.026-.017-.042-.035-.067a4.4,4.4,0,0,0-1.417.293c-.1-.066-.177-.117-.268-.176a2.077,2.077,0,0,1,.63-.579,1.676,1.676,0,0,0,.721-.579,1.135,1.135,0,0,1,.125-.134c.2-.21.4-.42.6-.629.066-.077.151-.144.158-.252a1.077,1.077,0,0,0-.1-.227c-.084-.177-.068-.244.092-.369a3.579,3.579,0,0,1,.621-.377,3.314,3.314,0,0,0,.7-.462,1.815,1.815,0,0,1,.823-.428,1.439,1.439,0,0,0,.318-.125,5.229,5.229,0,0,1,1.192-.571,2.428,2.428,0,0,1,.914-.193,10.819,10.819,0,0,0,1.385-.075,1.232,1.232,0,0,0,.251-.025,3.218,3.218,0,0,0,1.116-.512,7.694,7.694,0,0,1,.873-.588,1.9,1.9,0,0,1,.839-.26.98.98,0,0,1,.629.177c.093.067.185.125.277.2a1.212,1.212,0,0,0,.646.259,2.82,2.82,0,0,0,.663.05c.151,0,.16.009.2.168a1.427,1.427,0,0,1-.587.228m4.181,28.465c.191.044.309.073.425.1.073-.272-.2-.492-.051-.742.331.059.324-.235.433-.411.073.051.147.11.235.176.051-.125.1-.243.154-.36.052.052.1.088.148.132.183.081.147-.279.411-.147a3.915,3.915,0,0,0,.477,1.726,24,24,0,0,0,2.2,3.606,3.654,3.654,0,0,0,3.723,1.873c.118-.139.272-.338.447-.514a5.917,5.917,0,0,1,.647-.551,1.463,1.463,0,0,1,1.748-.14c.4.352.845.624,1.285.954a10.947,10.947,0,0,0-2.2.258,1.222,1.222,0,0,0-1.109.757,3.242,3.242,0,0,1-.948,1.131c-.2.183.579,2.306,1.763,2.328-.073.14-.1.228-.14.242a15.16,15.16,0,0,1-2.585.787,1.417,1.417,0,0,1-.646-.1,5.6,5.6,0,0,1-1.74-.933c-.242.117-.514.037-.72.235a2.334,2.334,0,0,1-.537.984,1.383,1.383,0,0,0-.014-1.006c-.588,1.256-1.8.984-2.85,1.248a.714.714,0,0,0-.764-.638c.382-.721.4-1.455.72-2.108.293-.6.639-.991,1.365-.815.073.014.169-.051.286-.088a1.629,1.629,0,0,0,.14-.823c-.706-1.241-1.448-2.476-2.109-3.745a3.013,3.013,0,0,1-.418-2.467c-.235-.419.455-.544.22-.948m-1.2,21.973a1.789,1.789,0,0,1,.124-.561c.092-.275.183-.549.277-.824a1.528,1.528,0,0,1,.174-.394,1.51,1.51,0,0,1,.406-.355c.484-.332,2.18-1.626,2.728-1.091.622.608-.38,2.259-.682,2.8a6.016,6.016,0,0,1-2.4,2.762q-.27-.929-.539-1.856a1.758,1.758,0,0,1-.092-.483" transform="translate(0 0)" fill="#ddd1c0"/>
      <path id="Path_20956" data-name="Path 20956" d="M67.376,72.958a.866.866,0,1,1,1.263.5.974.974,0,0,1-1.263-.5" transform="translate(-11.728 -12.481)" fill="#ddd1c0"/>
      <path id="Path_20957" data-name="Path 20957" d="M76.979,82.518c.133-.077.142-.311.02-.523s-.329-.32-.462-.244-.142.311-.02.523.329.32.462.244" transform="translate(-13.338 -14.263)" fill="#ddd1c0"/>
      <path id="Path_20958" data-name="Path 20958" d="M143.4,47.18l2.623-.688a15.058,15.058,0,0,1-.344-4l.86-16.25c.129-2.665-.774-3.483-3.053-3.483a6.879,6.879,0,0,1,.473-2.751h10.876l6.836,17.755,6.749-17.755h11.565A7.051,7.051,0,0,1,179.6,22.5l-2.537.688a29.877,29.877,0,0,1,.387,3.955l.773,16.25c.129,2.837.86,3.568,3.1,3.526a5.906,5.906,0,0,1-.516,2.751H168.381a7.6,7.6,0,0,1,.387-2.494l2.623-.688a29.714,29.714,0,0,1-.516-4.427l-.816-15.649-.3.043L161.5,47.309,159.4,47.7l-8.427-21.237-.258-.043-.9,16.681c-.173,2.665.645,3.782,3.095,3.826a6.9,6.9,0,0,1-.472,2.751h-9.415a7.417,7.417,0,0,1,.387-2.494" transform="translate(-24.959 -3.492)" fill="#ddd1c0"/>
      <path id="Path_20959" data-name="Path 20959" d="M210.984,41.762H197.227c.129,4.384,2.536,7.093,6.362,7.093a8.331,8.331,0,0,0,5.847-2.623,1.692,1.692,0,0,1,1.289,1.591c0,2.106-3.7,4.385-8.512,4.385-7.653,0-12.037-4.772-12.037-10.834,0-5.718,4.3-10.532,11.005-10.532,5.546,0,10.016,3.482,10.016,9.243a6.89,6.89,0,0,1-.215,1.677m-13.628-2.794h7.609c.387-3.224-1.29-5.288-3.44-5.288-2.494,0-3.782,2.021-4.17,5.288" transform="translate(-33.189 -5.383)" fill="#ddd1c0"/>
      <path id="Path_20960" data-name="Path 20960" d="M233.1,48.048c0,1.763-2.494,3.053-5.8,3.053-4.213,0-7.093-1.977-7.093-6.535V33.99h-2.708a9.238,9.238,0,0,1,.429-2.967l2.665-.6.386-2.793c.387-2.022,1.935-3.138,4.342-3.138.56,0,1.376.043,2.064.085v5.8h5.073c0,2.235-.9,3.181-3.311,3.352l-1.762.129V44.137c0,2.536.774,3.524,2.192,3.524a5.054,5.054,0,0,0,2.794-1.075,1.872,1.872,0,0,1,.731,1.462" transform="translate(-37.956 -4.274)" fill="#ddd1c0"/>
      <path id="Path_20961" data-name="Path 20961" d="M258.672,47.516a9.894,9.894,0,0,1-1.5,4.514l-3.483-.43H242.766c-2.537,0-3.612-1.032-3.654-2.537L251.063,34.49h-3.052c-1.806,0-2.838.129-3.44.731l-.688,2.837c-2.494.344-4.213-.731-4.213-2.708a8.732,8.732,0,0,1,1.462-4.3l3.654.473h10.059c2.451,0,3.569,1.075,3.654,2.536L246.763,48.547h3.483c1.848,0,2.923-.215,3.4-.731l.816-3.224c2.58-.258,4.213.817,4.213,2.924" transform="translate(-41.729 -5.419)" fill="#ddd1c0"/>
      <path id="Path_20962" data-name="Path 20962" d="M285.288,41.762H271.531c.129,4.384,2.536,7.093,6.362,7.093a8.332,8.332,0,0,0,5.847-2.623,1.692,1.692,0,0,1,1.289,1.591c0,2.106-3.7,4.385-8.512,4.385-7.653,0-12.037-4.772-12.037-10.834,0-5.718,4.3-10.532,11.005-10.532,5.546,0,10.016,3.482,10.016,9.243a6.89,6.89,0,0,1-.215,1.677M271.66,38.968h7.609c.387-3.224-1.29-5.288-3.44-5.288-2.494,0-3.782,2.021-4.17,5.288" transform="translate(-46.156 -5.383)" fill="#ddd1c0"/>
      <path id="Path_20963" data-name="Path 20963" d="M292.321,49.2l1.978-.645a25.172,25.172,0,0,1-.344-4.386V37.377c0-2.579-.558-3.31-2.45-3.439a8.91,8.91,0,0,1,.344-2.321l8.211-.688a13.023,13.023,0,0,1,.816,4.772h.215c1.591-3.181,3.654-4.857,5.8-4.857a3.233,3.233,0,0,1,3.569,3.309,4.115,4.115,0,0,1-1.677,3.267,4.642,4.642,0,0,0-3.009-1.032c-1.719,0-3.526,1.29-4.686,3.569V46.19c0,1.978.688,2.752,3.01,2.837.3,1.72-1.118,2.537-3.01,2.537h-9.242a5.677,5.677,0,0,1,.472-2.364" transform="translate(-50.873 -5.383)" fill="#ddd1c0"/>
      <path id="Path_20964" data-name="Path 20964" d="M168.1,66.288c0,2.751-2.02,4.127-5.2,3.826l-.96-3.242c-.645-.559-1.677-.6-3.1-.6h-5.2v9.845h8.34c.087,2.493-.86,3.654-3.654,3.654h-4.685V86.3c0,2.837,1.161,3.569,3.611,3.482a5.914,5.914,0,0,1-.516,2.751h-13.07a7.592,7.592,0,0,1,.387-2.493l2.623-.688a23.027,23.027,0,0,1-.344-3.955V69.108c0-2.794-.816-3.483-3.052-3.483a6.809,6.809,0,0,1,.516-2.751h19.345l3.353-.645c.563.977,1.6,2.6,1.6,4.059" transform="translate(-25.004 -10.86)" fill="#ddd1c0"/>
      <path id="Path_20965" data-name="Path 20965" d="M185.921,95.209c-2.794,0-4.685-1.2-5.2-3.181h-.13a7.084,7.084,0,0,1-5.889,3.181c-3.783,0-6.535-2.58-6.535-6.147,0-3.783,3.053-6.363,7.608-6.363a13.681,13.681,0,0,1,4.643.817V79.991a2.9,2.9,0,0,0-2.966-3.182A4.435,4.435,0,0,0,175,77.54l-.816,3.4c-2.58.258-4.127-.731-4.127-2.708a9.239,9.239,0,0,1,1.462-4.342l3.525.946a11.033,11.033,0,0,1,4.643-.989c4.643,0,7.91,2.837,7.91,6.878v7.222c0,3.526.516,4.214,3.1,4.085.172,1.977-1.677,3.181-4.772,3.181m-8.683-3.74a3.91,3.91,0,0,0,3.181-1.805V86.052a5.11,5.11,0,0,0-2.794-.816,3.179,3.179,0,0,0-3.482,3.181,2.945,2.945,0,0,0,3.1,3.052" transform="translate(-29.348 -12.887)" fill="#ddd1c0"/>
      <path id="Path_20966" data-name="Path 20966" d="M198.1,92.2l1.978-.645a25.164,25.164,0,0,1-.344-4.385V80.378c0-2.58-.558-3.311-2.45-3.44a8.909,8.909,0,0,1,.344-2.321l8.211-.688a13.019,13.019,0,0,1,.816,4.771h.215c1.592-3.181,3.654-4.857,5.8-4.857a3.234,3.234,0,0,1,3.569,3.309,4.115,4.115,0,0,1-1.677,3.267,4.642,4.642,0,0,0-3.009-1.032c-1.719,0-3.526,1.29-4.686,3.569V89.19c0,1.978.688,2.752,3.01,2.838.3,1.719-1.118,2.536-3.01,2.536h-9.242A5.678,5.678,0,0,1,198.1,92.2" transform="translate(-34.43 -12.887)" fill="#ddd1c0"/>
      <path id="Path_20967" data-name="Path 20967" d="M223.574,92.2l1.978-.645a25.161,25.161,0,0,1-.344-4.385V80.42c0-2.622-.558-3.353-2.45-3.482a8.909,8.909,0,0,1,.344-2.321l8.211-.688a13.414,13.414,0,0,1,.816,3.911h.215a8.053,8.053,0,0,1,7.05-4c3.181,0,5.8,1.418,6.922,4.3h.172a8.474,8.474,0,0,1,7.523-4.3c4.514,0,7.781,2.793,7.781,7.78V89.19c0,2.107.688,2.709,2.794,2.838.258,1.719-1.118,2.536-3.009,2.536h-8.985a6.27,6.27,0,0,1,.43-2.364l1.935-.645a25.084,25.084,0,0,1-.344-4.385V82.01c0-3.095-1.418-4.342-3.267-4.342-1.677,0-3.4,1.29-4.514,3.741v7.78c0,2.107.731,2.709,2.837,2.838.258,1.719-1.118,2.536-3.009,2.536h-8.555a6.286,6.286,0,0,1,.43-2.364l1.934-.645a25.081,25.081,0,0,1-.343-4.385V82.01c0-3.095-1.419-4.342-3.267-4.342-1.719,0-3.31,1.2-4.515,3.741v7.78c0,2.107.731,2.709,2.838,2.838.258,1.719-1.118,2.536-3.01,2.536H223.1a5.678,5.678,0,0,1,.472-2.364" transform="translate(-38.875 -12.887)" fill="#ddd1c0"/>
      <path id="Path_20968" data-name="Path 20968" d="M275.517,90.823c0-2.192,1.677-3.353,4.213-3.052l.731,3.052a4.382,4.382,0,0,0,3.224,1.161c1.634,0,2.88-.9,2.88-2.407,0-4-10.361-2.58-10.361-9.543,0-3.654,2.8-6.19,7.351-6.19a8.861,8.861,0,0,1,4,.9l3.526-.9a8.347,8.347,0,0,1,1.461,4.212c0,2.02-1.762,3.052-4.212,2.751l-.817-3.1a3.552,3.552,0,0,0-2.493-.859A2.363,2.363,0,0,0,282.4,79.13c0,4.342,10.748,2.451,10.748,9.715,0,3.87-3.267,6.321-7.7,6.363a10.31,10.31,0,0,1-4.9-1.2l-3.525,1.2a9.276,9.276,0,0,1-1.5-4.385" transform="translate(-48.082 -12.887)" fill="#ddd1c0"/>
    </g>
  </g>
</svg>
